<mxfile host="app.diagrams.net" agent="Mozilla/5.0 (Macintosh; Intel Mac OS X 10_15_7) AppleWebKit/537.36 (KHTML, like Gecko) Chrome/135.0.0.0 Safari/537.36" version="26.2.9">
  <diagram name="Trang-1" id="FI35gP_wtqjPVAbQ8WKQ">
    <mxGraphModel dx="1425" dy="1030" grid="1" gridSize="10" guides="1" tooltips="1" connect="1" arrows="1" fold="1" page="1" pageScale="1" pageWidth="827" pageHeight="1169" math="0" shadow="0">
      <root>
        <mxCell id="0" />
        <mxCell id="1" parent="0" />
        <mxCell id="mklz-G96IOCMaS5BO4wx-2" value="Region" style="points=[[0,0],[0.25,0],[0.5,0],[0.75,0],[1,0],[1,0.25],[1,0.5],[1,0.75],[1,1],[0.75,1],[0.5,1],[0.25,1],[0,1],[0,0.75],[0,0.5],[0,0.25]];outlineConnect=0;gradientColor=none;html=1;whiteSpace=wrap;fontSize=12;fontStyle=0;container=1;pointerEvents=0;collapsible=0;recursiveResize=0;shape=mxgraph.aws4.group;grIcon=mxgraph.aws4.group_region;strokeColor=#00A4A6;fillColor=none;verticalAlign=top;align=left;spacingLeft=30;fontColor=#147EBA;dashed=1;" vertex="1" parent="1">
          <mxGeometry x="90" y="260" width="1250" height="800" as="geometry" />
        </mxCell>
        <mxCell id="mklz-G96IOCMaS5BO4wx-15" value="&lt;b&gt;VPC&lt;/b&gt;" style="points=[[0,0],[0.25,0],[0.5,0],[0.75,0],[1,0],[1,0.25],[1,0.5],[1,0.75],[1,1],[0.75,1],[0.5,1],[0.25,1],[0,1],[0,0.75],[0,0.5],[0,0.25]];outlineConnect=0;gradientColor=none;html=1;whiteSpace=wrap;fontSize=12;fontStyle=0;container=1;pointerEvents=0;collapsible=0;recursiveResize=0;shape=mxgraph.aws4.group;grIcon=mxgraph.aws4.group_vpc2;strokeColor=#8C4FFF;fillColor=none;verticalAlign=top;align=left;spacingLeft=30;fontColor=#AAB7B8;dashed=0;" vertex="1" parent="mklz-G96IOCMaS5BO4wx-2">
          <mxGeometry x="10" y="130" width="1230" height="558" as="geometry" />
        </mxCell>
        <mxCell id="mklz-G96IOCMaS5BO4wx-20" value="Public subnet" style="points=[[0,0],[0.25,0],[0.5,0],[0.75,0],[1,0],[1,0.25],[1,0.5],[1,0.75],[1,1],[0.75,1],[0.5,1],[0.25,1],[0,1],[0,0.75],[0,0.5],[0,0.25]];outlineConnect=0;gradientColor=none;html=1;whiteSpace=wrap;fontSize=12;fontStyle=0;container=1;pointerEvents=0;collapsible=0;recursiveResize=0;shape=mxgraph.aws4.group;grIcon=mxgraph.aws4.group_security_group;grStroke=0;strokeColor=#7AA116;fillColor=#F2F6E8;verticalAlign=top;align=left;spacingLeft=30;fontColor=#248814;dashed=0;" vertex="1" parent="mklz-G96IOCMaS5BO4wx-15">
          <mxGeometry x="70" y="63.8" width="350" height="476.2" as="geometry" />
        </mxCell>
        <mxCell id="mklz-G96IOCMaS5BO4wx-17" value="Availability Zone A" style="fillColor=none;strokeColor=#147EBA;dashed=1;verticalAlign=top;fontStyle=0;fontColor=#147EBA;whiteSpace=wrap;html=1;container=1;" vertex="1" parent="mklz-G96IOCMaS5BO4wx-20">
          <mxGeometry x="-20" y="-30" width="380" height="506.2" as="geometry" />
        </mxCell>
        <mxCell id="mklz-G96IOCMaS5BO4wx-28" value="NAT Gateway" style="sketch=0;outlineConnect=0;fontColor=#232F3E;gradientColor=none;fillColor=#8C4FFF;strokeColor=none;dashed=0;verticalLabelPosition=bottom;verticalAlign=top;align=center;html=1;fontSize=12;fontStyle=0;aspect=fixed;pointerEvents=1;shape=mxgraph.aws4.nat_gateway;" vertex="1" parent="mklz-G96IOCMaS5BO4wx-17">
          <mxGeometry x="157" y="115" width="78" height="78" as="geometry" />
        </mxCell>
        <mxCell id="mklz-G96IOCMaS5BO4wx-21" value="Private subnet" style="points=[[0,0],[0.25,0],[0.5,0],[0.75,0],[1,0],[1,0.25],[1,0.5],[1,0.75],[1,1],[0.75,1],[0.5,1],[0.25,1],[0,1],[0,0.75],[0,0.5],[0,0.25]];outlineConnect=0;gradientColor=none;html=1;whiteSpace=wrap;fontSize=12;fontStyle=0;container=1;pointerEvents=0;collapsible=0;recursiveResize=0;shape=mxgraph.aws4.group;grIcon=mxgraph.aws4.group_security_group;grStroke=0;strokeColor=#00A4A6;fillColor=#E6F6F7;verticalAlign=top;align=left;spacingLeft=30;fontColor=#147EBA;dashed=0;" vertex="1" parent="mklz-G96IOCMaS5BO4wx-15">
          <mxGeometry x="70" y="303.8" width="350" height="236.2" as="geometry" />
        </mxCell>
        <mxCell id="mklz-G96IOCMaS5BO4wx-22" value="Auto Scaling group" style="points=[[0,0],[0.25,0],[0.5,0],[0.75,0],[1,0],[1,0.25],[1,0.5],[1,0.75],[1,1],[0.75,1],[0.5,1],[0.25,1],[0,1],[0,0.75],[0,0.5],[0,0.25]];outlineConnect=0;gradientColor=none;html=1;whiteSpace=wrap;fontSize=12;fontStyle=0;container=1;pointerEvents=0;collapsible=0;recursiveResize=0;shape=mxgraph.aws4.groupCenter;grIcon=mxgraph.aws4.group_auto_scaling_group;grStroke=1;strokeColor=#D86613;fillColor=none;verticalAlign=top;align=center;fontColor=#D86613;dashed=1;spacingTop=25;" vertex="1" parent="mklz-G96IOCMaS5BO4wx-21">
          <mxGeometry x="20" y="40" width="310" height="190" as="geometry" />
        </mxCell>
        <mxCell id="mklz-G96IOCMaS5BO4wx-25" value="FE tasks" style="sketch=0;outlineConnect=0;fontColor=#232F3E;gradientColor=none;fillColor=#ED7100;strokeColor=none;dashed=0;verticalLabelPosition=bottom;verticalAlign=top;align=center;html=1;fontSize=12;fontStyle=0;aspect=fixed;pointerEvents=1;shape=mxgraph.aws4.ecs_task;" vertex="1" parent="mklz-G96IOCMaS5BO4wx-22">
          <mxGeometry x="50" y="71" width="37" height="48" as="geometry" />
        </mxCell>
        <mxCell id="mklz-G96IOCMaS5BO4wx-26" value="Nodejs&lt;br&gt;tasks" style="sketch=0;outlineConnect=0;fontColor=#232F3E;gradientColor=none;fillColor=#ED7100;strokeColor=none;dashed=0;verticalLabelPosition=bottom;verticalAlign=top;align=center;html=1;fontSize=12;fontStyle=0;aspect=fixed;pointerEvents=1;shape=mxgraph.aws4.ecs_task;" vertex="1" parent="mklz-G96IOCMaS5BO4wx-22">
          <mxGeometry x="120" y="71" width="37" height="48" as="geometry" />
        </mxCell>
        <mxCell id="mklz-G96IOCMaS5BO4wx-27" value="PHP&lt;br&gt;tasks" style="sketch=0;outlineConnect=0;fontColor=#232F3E;gradientColor=none;fillColor=#ED7100;strokeColor=none;dashed=0;verticalLabelPosition=bottom;verticalAlign=top;align=center;html=1;fontSize=12;fontStyle=0;aspect=fixed;pointerEvents=1;shape=mxgraph.aws4.ecs_task;" vertex="1" parent="mklz-G96IOCMaS5BO4wx-22">
          <mxGeometry x="195" y="71" width="37" height="48" as="geometry" />
        </mxCell>
        <mxCell id="mklz-G96IOCMaS5BO4wx-23" value="ECS Farget" style="sketch=0;points=[[0,0,0],[0.25,0,0],[0.5,0,0],[0.75,0,0],[1,0,0],[0,1,0],[0.25,1,0],[0.5,1,0],[0.75,1,0],[1,1,0],[0,0.25,0],[0,0.5,0],[0,0.75,0],[1,0.25,0],[1,0.5,0],[1,0.75,0]];outlineConnect=0;fontColor=#232F3E;fillColor=#ED7100;strokeColor=#ffffff;dashed=0;verticalLabelPosition=bottom;verticalAlign=top;align=center;html=1;fontSize=12;fontStyle=0;aspect=fixed;shape=mxgraph.aws4.resourceIcon;resIcon=mxgraph.aws4.fargate;" vertex="1" parent="mklz-G96IOCMaS5BO4wx-21">
          <mxGeometry x="286" y="20.000000000000007" width="34" height="34" as="geometry" />
        </mxCell>
        <mxCell id="mklz-G96IOCMaS5BO4wx-29" value="" style="endArrow=classic;html=1;rounded=0;" edge="1" parent="mklz-G96IOCMaS5BO4wx-15" source="mklz-G96IOCMaS5BO4wx-22" target="mklz-G96IOCMaS5BO4wx-28">
          <mxGeometry width="50" height="50" relative="1" as="geometry">
            <mxPoint x="580" y="183.8" as="sourcePoint" />
            <mxPoint x="630" y="133.8" as="targetPoint" />
          </mxGeometry>
        </mxCell>
        <mxCell id="mklz-G96IOCMaS5BO4wx-30" value="Application Load&lt;br&gt;Balacer" style="sketch=0;outlineConnect=0;fontColor=#232F3E;gradientColor=none;fillColor=#8C4FFF;strokeColor=none;dashed=0;verticalLabelPosition=bottom;verticalAlign=top;align=center;html=1;fontSize=12;fontStyle=0;aspect=fixed;pointerEvents=1;shape=mxgraph.aws4.application_load_balancer;" vertex="1" parent="mklz-G96IOCMaS5BO4wx-15">
          <mxGeometry x="460" y="210" width="78" height="78" as="geometry" />
        </mxCell>
        <mxCell id="mklz-G96IOCMaS5BO4wx-38" value="Public subnet" style="points=[[0,0],[0.25,0],[0.5,0],[0.75,0],[1,0],[1,0.25],[1,0.5],[1,0.75],[1,1],[0.75,1],[0.5,1],[0.25,1],[0,1],[0,0.75],[0,0.5],[0,0.25]];outlineConnect=0;gradientColor=none;html=1;whiteSpace=wrap;fontSize=12;fontStyle=0;container=1;pointerEvents=0;collapsible=0;recursiveResize=0;shape=mxgraph.aws4.group;grIcon=mxgraph.aws4.group_security_group;grStroke=0;strokeColor=#7AA116;fillColor=#F2F6E8;verticalAlign=top;align=left;spacingLeft=30;fontColor=#248814;dashed=0;" vertex="1" parent="mklz-G96IOCMaS5BO4wx-15">
          <mxGeometry x="600" y="63.8" width="600" height="236.2" as="geometry" />
        </mxCell>
        <mxCell id="mklz-G96IOCMaS5BO4wx-39" value="Availability Zone A" style="fillColor=none;strokeColor=#147EBA;dashed=1;verticalAlign=top;fontStyle=0;fontColor=#147EBA;whiteSpace=wrap;html=1;container=1;" vertex="1" parent="mklz-G96IOCMaS5BO4wx-38">
          <mxGeometry x="-20" y="-30" width="620" height="506.2" as="geometry" />
        </mxCell>
        <mxCell id="mklz-G96IOCMaS5BO4wx-68" value="EC2 basion host" style="outlineConnect=0;dashed=0;verticalLabelPosition=bottom;verticalAlign=top;align=center;html=1;shape=mxgraph.aws3.ec2;fillColor=#F58534;gradientColor=none;" vertex="1" parent="mklz-G96IOCMaS5BO4wx-39">
          <mxGeometry x="290" y="111.19999999999995" width="76.5" height="93" as="geometry" />
        </mxCell>
        <mxCell id="mklz-G96IOCMaS5BO4wx-40" value="NAT&amp;nbsp;Gateway" style="sketch=0;outlineConnect=0;fontColor=#232F3E;gradientColor=none;fillColor=#8C4FFF;strokeColor=none;dashed=0;verticalLabelPosition=bottom;verticalAlign=top;align=center;html=1;fontSize=12;fontStyle=0;aspect=fixed;pointerEvents=1;shape=mxgraph.aws4.nat_gateway;" vertex="1" parent="mklz-G96IOCMaS5BO4wx-38">
          <mxGeometry x="40" y="85" width="78" height="78" as="geometry" />
        </mxCell>
        <mxCell id="mklz-G96IOCMaS5BO4wx-41" value="Private subnet" style="points=[[0,0],[0.25,0],[0.5,0],[0.75,0],[1,0],[1,0.25],[1,0.5],[1,0.75],[1,1],[0.75,1],[0.5,1],[0.25,1],[0,1],[0,0.75],[0,0.5],[0,0.25]];outlineConnect=0;gradientColor=none;html=1;whiteSpace=wrap;fontSize=12;fontStyle=0;container=1;pointerEvents=0;collapsible=0;recursiveResize=0;shape=mxgraph.aws4.group;grIcon=mxgraph.aws4.group_security_group;grStroke=0;strokeColor=#00A4A6;fillColor=#E6F6F7;verticalAlign=top;align=left;spacingLeft=30;fontColor=#147EBA;dashed=0;" vertex="1" parent="mklz-G96IOCMaS5BO4wx-15">
          <mxGeometry x="600" y="303.8" width="600" height="236.2" as="geometry" />
        </mxCell>
        <mxCell id="mklz-G96IOCMaS5BO4wx-42" value="Auto Scaling group" style="points=[[0,0],[0.25,0],[0.5,0],[0.75,0],[1,0],[1,0.25],[1,0.5],[1,0.75],[1,1],[0.75,1],[0.5,1],[0.25,1],[0,1],[0,0.75],[0,0.5],[0,0.25]];outlineConnect=0;gradientColor=none;html=1;whiteSpace=wrap;fontSize=12;fontStyle=0;container=1;pointerEvents=0;collapsible=0;recursiveResize=0;shape=mxgraph.aws4.groupCenter;grIcon=mxgraph.aws4.group_auto_scaling_group;grStroke=1;strokeColor=#D86613;fillColor=none;verticalAlign=top;align=center;fontColor=#D86613;dashed=1;spacingTop=25;" vertex="1" parent="mklz-G96IOCMaS5BO4wx-41">
          <mxGeometry x="20" y="40" width="570" height="190" as="geometry" />
        </mxCell>
        <mxCell id="mklz-G96IOCMaS5BO4wx-43" value="FE tasks" style="sketch=0;outlineConnect=0;fontColor=#232F3E;gradientColor=none;fillColor=#ED7100;strokeColor=none;dashed=0;verticalLabelPosition=bottom;verticalAlign=top;align=center;html=1;fontSize=12;fontStyle=0;aspect=fixed;pointerEvents=1;shape=mxgraph.aws4.ecs_task;" vertex="1" parent="mklz-G96IOCMaS5BO4wx-42">
          <mxGeometry x="50" y="71" width="37" height="48" as="geometry" />
        </mxCell>
        <mxCell id="mklz-G96IOCMaS5BO4wx-44" value="Nodejs&lt;br&gt;tasks" style="sketch=0;outlineConnect=0;fontColor=#232F3E;gradientColor=none;fillColor=#ED7100;strokeColor=none;dashed=0;verticalLabelPosition=bottom;verticalAlign=top;align=center;html=1;fontSize=12;fontStyle=0;aspect=fixed;pointerEvents=1;shape=mxgraph.aws4.ecs_task;" vertex="1" parent="mklz-G96IOCMaS5BO4wx-42">
          <mxGeometry x="120" y="71" width="37" height="48" as="geometry" />
        </mxCell>
        <mxCell id="mklz-G96IOCMaS5BO4wx-45" value="PHP&lt;br&gt;tasks" style="sketch=0;outlineConnect=0;fontColor=#232F3E;gradientColor=none;fillColor=#ED7100;strokeColor=none;dashed=0;verticalLabelPosition=bottom;verticalAlign=top;align=center;html=1;fontSize=12;fontStyle=0;aspect=fixed;pointerEvents=1;shape=mxgraph.aws4.ecs_task;" vertex="1" parent="mklz-G96IOCMaS5BO4wx-42">
          <mxGeometry x="195" y="71" width="37" height="48" as="geometry" />
        </mxCell>
        <mxCell id="mklz-G96IOCMaS5BO4wx-46" value="ECS Farget" style="sketch=0;points=[[0,0,0],[0.25,0,0],[0.5,0,0],[0.75,0,0],[1,0,0],[0,1,0],[0.25,1,0],[0.5,1,0],[0.75,1,0],[1,1,0],[0,0.25,0],[0,0.5,0],[0,0.75,0],[1,0.25,0],[1,0.5,0],[1,0.75,0]];outlineConnect=0;fontColor=#232F3E;fillColor=#ED7100;strokeColor=#ffffff;dashed=0;verticalLabelPosition=bottom;verticalAlign=top;align=center;html=1;fontSize=12;fontStyle=0;aspect=fixed;shape=mxgraph.aws4.resourceIcon;resIcon=mxgraph.aws4.fargate;" vertex="1" parent="mklz-G96IOCMaS5BO4wx-41">
          <mxGeometry x="531" y="20.000000000000007" width="34" height="34" as="geometry" />
        </mxCell>
        <mxCell id="mklz-G96IOCMaS5BO4wx-47" value="" style="endArrow=classic;html=1;rounded=0;exitX=0.105;exitY=0.001;exitDx=0;exitDy=0;exitPerimeter=0;" edge="1" parent="mklz-G96IOCMaS5BO4wx-15" source="mklz-G96IOCMaS5BO4wx-42" target="mklz-G96IOCMaS5BO4wx-40">
          <mxGeometry width="50" height="50" relative="1" as="geometry">
            <mxPoint x="1110" y="183.8" as="sourcePoint" />
            <mxPoint x="1160" y="133.8" as="targetPoint" />
          </mxGeometry>
        </mxCell>
        <mxCell id="mklz-G96IOCMaS5BO4wx-69" value="" style="endArrow=classic;html=1;rounded=0;exitX=0.5;exitY=1;exitDx=0;exitDy=0;exitPerimeter=0;" edge="1" parent="mklz-G96IOCMaS5BO4wx-15" source="mklz-G96IOCMaS5BO4wx-68" target="mklz-G96IOCMaS5BO4wx-42">
          <mxGeometry width="50" height="50" relative="1" as="geometry">
            <mxPoint x="829" y="354" as="sourcePoint" />
            <mxPoint x="724" y="237" as="targetPoint" />
          </mxGeometry>
        </mxCell>
        <mxCell id="mklz-G96IOCMaS5BO4wx-53" value="Internet Gateway" style="outlineConnect=0;dashed=0;verticalLabelPosition=bottom;verticalAlign=top;align=center;html=1;shape=mxgraph.aws3.internet_gateway;fillColor=#F58534;gradientColor=none;" vertex="1" parent="mklz-G96IOCMaS5BO4wx-2">
          <mxGeometry x="474.5" y="24.5" width="69" height="72" as="geometry" />
        </mxCell>
        <mxCell id="mklz-G96IOCMaS5BO4wx-54" value="" style="endArrow=classic;html=1;rounded=0;exitX=0.5;exitY=1;exitDx=0;exitDy=0;exitPerimeter=0;" edge="1" parent="mklz-G96IOCMaS5BO4wx-2" source="mklz-G96IOCMaS5BO4wx-53" target="mklz-G96IOCMaS5BO4wx-30">
          <mxGeometry width="50" height="50" relative="1" as="geometry">
            <mxPoint x="640" y="-50" as="sourcePoint" />
            <mxPoint x="720" y="270" as="targetPoint" />
          </mxGeometry>
        </mxCell>
        <mxCell id="mklz-G96IOCMaS5BO4wx-70" value="CloudWatch - Monitoring" style="outlineConnect=0;dashed=0;verticalLabelPosition=bottom;verticalAlign=top;align=center;html=1;shape=mxgraph.aws3.cloudwatch;fillColor=#759C3E;gradientColor=none;" vertex="1" parent="mklz-G96IOCMaS5BO4wx-2">
          <mxGeometry x="100" width="82.5" height="93" as="geometry" />
        </mxCell>
        <mxCell id="mklz-G96IOCMaS5BO4wx-71" value="Cloudtrail - Loging" style="sketch=0;points=[[0,0,0],[0.25,0,0],[0.5,0,0],[0.75,0,0],[1,0,0],[0,1,0],[0.25,1,0],[0.5,1,0],[0.75,1,0],[1,1,0],[0,0.25,0],[0,0.5,0],[0,0.75,0],[1,0.25,0],[1,0.5,0],[1,0.75,0]];points=[[0,0,0],[0.25,0,0],[0.5,0,0],[0.75,0,0],[1,0,0],[0,1,0],[0.25,1,0],[0.5,1,0],[0.75,1,0],[1,1,0],[0,0.25,0],[0,0.5,0],[0,0.75,0],[1,0.25,0],[1,0.5,0],[1,0.75,0]];outlineConnect=0;fontColor=#232F3E;fillColor=#E7157B;strokeColor=#ffffff;dashed=0;verticalLabelPosition=bottom;verticalAlign=top;align=center;html=1;fontSize=12;fontStyle=0;aspect=fixed;shape=mxgraph.aws4.resourceIcon;resIcon=mxgraph.aws4.cloudtrail;" vertex="1" parent="mklz-G96IOCMaS5BO4wx-2">
          <mxGeometry x="260" width="78" height="78" as="geometry" />
        </mxCell>
        <mxCell id="mklz-G96IOCMaS5BO4wx-72" value="" style="endArrow=classic;html=1;rounded=0;exitX=0.5;exitY=1;exitDx=0;exitDy=0;exitPerimeter=0;" edge="1" parent="mklz-G96IOCMaS5BO4wx-2" source="mklz-G96IOCMaS5BO4wx-70" target="mklz-G96IOCMaS5BO4wx-15">
          <mxGeometry width="50" height="50" relative="1" as="geometry">
            <mxPoint x="670" y="430" as="sourcePoint" />
            <mxPoint x="720" y="380" as="targetPoint" />
          </mxGeometry>
        </mxCell>
        <mxCell id="mklz-G96IOCMaS5BO4wx-74" value="ECR" style="outlineConnect=0;dashed=0;verticalLabelPosition=bottom;verticalAlign=top;align=center;html=1;shape=mxgraph.aws3.ecr;fillColor=#F58534;gradientColor=none;" vertex="1" parent="mklz-G96IOCMaS5BO4wx-2">
          <mxGeometry x="830" y="20" width="69" height="72" as="geometry" />
        </mxCell>
        <mxCell id="mklz-G96IOCMaS5BO4wx-61" value="S3" style="sketch=0;points=[[0,0,0],[0.25,0,0],[0.5,0,0],[0.75,0,0],[1,0,0],[0,1,0],[0.25,1,0],[0.5,1,0],[0.75,1,0],[1,1,0],[0,0.25,0],[0,0.5,0],[0,0.75,0],[1,0.25,0],[1,0.5,0],[1,0.75,0]];outlineConnect=0;fontColor=#232F3E;fillColor=#7AA116;strokeColor=#ffffff;dashed=0;verticalLabelPosition=bottom;verticalAlign=top;align=center;html=1;fontSize=12;fontStyle=0;aspect=fixed;shape=mxgraph.aws4.resourceIcon;resIcon=mxgraph.aws4.s3;" vertex="1" parent="mklz-G96IOCMaS5BO4wx-2">
          <mxGeometry x="480" y="680" width="78" height="78" as="geometry" />
        </mxCell>
        <mxCell id="mklz-G96IOCMaS5BO4wx-63" value="" style="endArrow=classic;html=1;rounded=0;entryX=1;entryY=0.5;entryDx=0;entryDy=0;entryPerimeter=0;exitX=0;exitY=0.75;exitDx=0;exitDy=0;" edge="1" parent="mklz-G96IOCMaS5BO4wx-2" source="mklz-G96IOCMaS5BO4wx-42" target="mklz-G96IOCMaS5BO4wx-61">
          <mxGeometry width="50" height="50" relative="1" as="geometry">
            <mxPoint x="420" y="626" as="sourcePoint" />
            <mxPoint x="490" y="609" as="targetPoint" />
          </mxGeometry>
        </mxCell>
        <mxCell id="mklz-G96IOCMaS5BO4wx-62" value="" style="endArrow=classic;html=1;rounded=0;entryX=0;entryY=0.5;entryDx=0;entryDy=0;entryPerimeter=0;exitX=1;exitY=0.75;exitDx=0;exitDy=0;" edge="1" parent="mklz-G96IOCMaS5BO4wx-2" source="mklz-G96IOCMaS5BO4wx-22" target="mklz-G96IOCMaS5BO4wx-61">
          <mxGeometry width="50" height="50" relative="1" as="geometry">
            <mxPoint x="265" y="484" as="sourcePoint" />
            <mxPoint x="266" y="367" as="targetPoint" />
          </mxGeometry>
        </mxCell>
        <mxCell id="mklz-G96IOCMaS5BO4wx-85" value="CodeDeploy" style="outlineConnect=0;dashed=0;verticalLabelPosition=bottom;verticalAlign=top;align=center;html=1;shape=mxgraph.aws3.codedeploy;fillColor=#759C3E;gradientColor=none;" vertex="1" parent="mklz-G96IOCMaS5BO4wx-2">
          <mxGeometry x="620" y="12" width="67.5" height="81" as="geometry" />
        </mxCell>
        <mxCell id="mklz-G96IOCMaS5BO4wx-86" value="" style="endArrow=classic;html=1;rounded=0;exitX=0;exitY=0.5;exitDx=0;exitDy=0;exitPerimeter=0;" edge="1" parent="mklz-G96IOCMaS5BO4wx-2" source="mklz-G96IOCMaS5BO4wx-74" target="mklz-G96IOCMaS5BO4wx-85">
          <mxGeometry width="50" height="50" relative="1" as="geometry">
            <mxPoint x="670" y="360" as="sourcePoint" />
            <mxPoint x="720" y="310" as="targetPoint" />
          </mxGeometry>
        </mxCell>
        <mxCell id="mklz-G96IOCMaS5BO4wx-87" value="" style="endArrow=classic;html=1;rounded=0;" edge="1" parent="mklz-G96IOCMaS5BO4wx-2" target="mklz-G96IOCMaS5BO4wx-22">
          <mxGeometry width="50" height="50" relative="1" as="geometry">
            <mxPoint x="650" y="100" as="sourcePoint" />
            <mxPoint x="669" y="66" as="targetPoint" />
          </mxGeometry>
        </mxCell>
        <mxCell id="mklz-G96IOCMaS5BO4wx-90" value="Delivery new Containers" style="edgeLabel;html=1;align=center;verticalAlign=middle;resizable=0;points=[];" vertex="1" connectable="0" parent="mklz-G96IOCMaS5BO4wx-87">
          <mxGeometry x="-0.2645" y="2" relative="1" as="geometry">
            <mxPoint as="offset" />
          </mxGeometry>
        </mxCell>
        <mxCell id="mklz-G96IOCMaS5BO4wx-88" value="" style="endArrow=classic;html=1;rounded=0;" edge="1" parent="mklz-G96IOCMaS5BO4wx-2" source="mklz-G96IOCMaS5BO4wx-85" target="mklz-G96IOCMaS5BO4wx-42">
          <mxGeometry width="50" height="50" relative="1" as="geometry">
            <mxPoint x="601" y="66" as="sourcePoint" />
            <mxPoint x="327" y="484" as="targetPoint" />
          </mxGeometry>
        </mxCell>
        <mxCell id="mklz-G96IOCMaS5BO4wx-89" value="Delivery new Containers" style="edgeLabel;html=1;align=center;verticalAlign=middle;resizable=0;points=[];" vertex="1" connectable="0" parent="mklz-G96IOCMaS5BO4wx-88">
          <mxGeometry x="-0.0741" relative="1" as="geometry">
            <mxPoint as="offset" />
          </mxGeometry>
        </mxCell>
        <mxCell id="mklz-G96IOCMaS5BO4wx-50" value="" style="endArrow=classic;html=1;rounded=0;entryX=0.145;entryY=0.855;entryDx=0;entryDy=0;entryPerimeter=0;" edge="1" parent="mklz-G96IOCMaS5BO4wx-2" source="mklz-G96IOCMaS5BO4wx-28" target="mklz-G96IOCMaS5BO4wx-53">
          <mxGeometry width="50" height="50" relative="1" as="geometry">
            <mxPoint x="265" y="484.00000000000006" as="sourcePoint" />
            <mxPoint x="266" y="367.00000000000006" as="targetPoint" />
          </mxGeometry>
        </mxCell>
        <mxCell id="mklz-G96IOCMaS5BO4wx-51" value="" style="endArrow=classic;html=1;rounded=0;entryX=0.855;entryY=0.855;entryDx=0;entryDy=0;entryPerimeter=0;" edge="1" parent="mklz-G96IOCMaS5BO4wx-2" source="mklz-G96IOCMaS5BO4wx-40" target="mklz-G96IOCMaS5BO4wx-53">
          <mxGeometry width="50" height="50" relative="1" as="geometry">
            <mxPoint x="839" y="484.00000000000006" as="sourcePoint" />
            <mxPoint x="734" y="367.00000000000006" as="targetPoint" />
          </mxGeometry>
        </mxCell>
        <mxCell id="mklz-G96IOCMaS5BO4wx-4" value="User" style="shape=umlActor;verticalLabelPosition=bottom;verticalAlign=top;html=1;outlineConnect=0;" vertex="1" parent="1">
          <mxGeometry x="390" y="92" width="30" height="60" as="geometry" />
        </mxCell>
        <mxCell id="mklz-G96IOCMaS5BO4wx-7" value="Mongodb Atlas" style="dashed=0;outlineConnect=0;html=1;align=center;labelPosition=center;verticalLabelPosition=bottom;verticalAlign=top;shape=mxgraph.weblogos.mongodb" vertex="1" parent="1">
          <mxGeometry x="420" y="1083" width="41.2" height="86.2" as="geometry" />
        </mxCell>
        <mxCell id="mklz-G96IOCMaS5BO4wx-8" value="" style="strokeColor=#dddddd;shadow=1;strokeWidth=1;rounded=1;absoluteArcSize=1;arcSize=2;" vertex="1" parent="1">
          <mxGeometry x="690" y="1096.1" width="100" height="60" as="geometry" />
        </mxCell>
        <mxCell id="mklz-G96IOCMaS5BO4wx-9" value="Firebase" style="sketch=0;dashed=0;connectable=0;html=1;fillColor=#5184F3;strokeColor=none;shape=mxgraph.gcp2.firebase;part=1;labelPosition=right;verticalLabelPosition=middle;align=left;verticalAlign=middle;spacingLeft=5;fontColor=#999999;fontSize=12;" vertex="1" parent="mklz-G96IOCMaS5BO4wx-8">
          <mxGeometry width="32.4" height="45" relative="1" as="geometry">
            <mxPoint x="5" y="7" as="offset" />
          </mxGeometry>
        </mxCell>
        <mxCell id="mklz-G96IOCMaS5BO4wx-13" value="" style="group" vertex="1" connectable="0" parent="1">
          <mxGeometry x="550" y="82" width="98" height="110" as="geometry" />
        </mxCell>
        <mxCell id="mklz-G96IOCMaS5BO4wx-10" value="" style="points=[];aspect=fixed;html=1;align=center;shadow=0;dashed=0;fillColor=#FF6A00;strokeColor=none;shape=mxgraph.alibaba_cloud.clouddev;" vertex="1" parent="mklz-G96IOCMaS5BO4wx-13">
          <mxGeometry width="98" height="70" as="geometry" />
        </mxCell>
        <mxCell id="mklz-G96IOCMaS5BO4wx-12" value="Cloudflare&lt;br&gt;DNS" style="whiteSpace=wrap;html=1;" vertex="1" parent="mklz-G96IOCMaS5BO4wx-13">
          <mxGeometry x="3.7000000000000455" y="80" width="90.6" height="30" as="geometry" />
        </mxCell>
        <mxCell id="mklz-G96IOCMaS5BO4wx-55" value="" style="endArrow=classic;html=1;rounded=0;entryX=0.5;entryY=1;entryDx=0;entryDy=0;exitX=0.5;exitY=0;exitDx=0;exitDy=0;exitPerimeter=0;" edge="1" parent="1" source="mklz-G96IOCMaS5BO4wx-53" target="mklz-G96IOCMaS5BO4wx-12">
          <mxGeometry width="50" height="50" relative="1" as="geometry">
            <mxPoint x="609" y="599" as="sourcePoint" />
            <mxPoint x="609" y="402" as="targetPoint" />
          </mxGeometry>
        </mxCell>
        <mxCell id="mklz-G96IOCMaS5BO4wx-56" value="" style="endArrow=classic;html=1;rounded=0;entryX=0.061;entryY=0.629;entryDx=0;entryDy=0;entryPerimeter=0;" edge="1" parent="1" source="mklz-G96IOCMaS5BO4wx-4" target="mklz-G96IOCMaS5BO4wx-10">
          <mxGeometry width="50" height="50" relative="1" as="geometry">
            <mxPoint x="609" y="330" as="sourcePoint" />
            <mxPoint x="609" y="230" as="targetPoint" />
          </mxGeometry>
        </mxCell>
        <mxCell id="mklz-G96IOCMaS5BO4wx-58" value="3rd party" style="aspect=fixed;sketch=0;html=1;dashed=0;whitespace=wrap;verticalLabelPosition=bottom;verticalAlign=top;fillColor=#2875E2;strokeColor=#ffffff;points=[[0.005,0.63,0],[0.1,0.2,0],[0.9,0.2,0],[0.5,0,0],[0.995,0.63,0],[0.72,0.99,0],[0.5,1,0],[0.28,0.99,0]];shape=mxgraph.kubernetes.icon2;prIcon=api" vertex="1" parent="1">
          <mxGeometry x="760" y="93" width="50" height="48" as="geometry" />
        </mxCell>
        <mxCell id="mklz-G96IOCMaS5BO4wx-59" value="" style="endArrow=classic;html=1;rounded=0;entryX=0.949;entryY=0.614;entryDx=0;entryDy=0;entryPerimeter=0;exitX=0.005;exitY=0.63;exitDx=0;exitDy=0;exitPerimeter=0;" edge="1" parent="1" source="mklz-G96IOCMaS5BO4wx-58" target="mklz-G96IOCMaS5BO4wx-10">
          <mxGeometry width="50" height="50" relative="1" as="geometry">
            <mxPoint x="430" y="160" as="sourcePoint" />
            <mxPoint x="566" y="164" as="targetPoint" />
          </mxGeometry>
        </mxCell>
        <mxCell id="mklz-G96IOCMaS5BO4wx-64" value="" style="endArrow=classic;html=1;rounded=0;exitX=0.5;exitY=1;exitDx=0;exitDy=0;" edge="1" parent="1" source="mklz-G96IOCMaS5BO4wx-17" target="mklz-G96IOCMaS5BO4wx-7">
          <mxGeometry width="50" height="50" relative="1" as="geometry">
            <mxPoint x="510" y="936" as="sourcePoint" />
            <mxPoint x="580" y="929" as="targetPoint" />
          </mxGeometry>
        </mxCell>
        <mxCell id="mklz-G96IOCMaS5BO4wx-65" value="" style="endArrow=classic;html=1;rounded=0;exitX=0.5;exitY=1;exitDx=0;exitDy=0;entryX=0;entryY=0;entryDx=0;entryDy=0;" edge="1" parent="1" source="mklz-G96IOCMaS5BO4wx-21" target="mklz-G96IOCMaS5BO4wx-8">
          <mxGeometry width="50" height="50" relative="1" as="geometry">
            <mxPoint x="350" y="990" as="sourcePoint" />
            <mxPoint x="480" y="1094" as="targetPoint" />
          </mxGeometry>
        </mxCell>
        <mxCell id="mklz-G96IOCMaS5BO4wx-67" value="" style="endArrow=classic;html=1;rounded=0;exitX=0.25;exitY=1;exitDx=0;exitDy=0;" edge="1" parent="1" source="mklz-G96IOCMaS5BO4wx-41" target="mklz-G96IOCMaS5BO4wx-7">
          <mxGeometry width="50" height="50" relative="1" as="geometry">
            <mxPoint x="845" y="990" as="sourcePoint" />
            <mxPoint x="670" y="1093" as="targetPoint" />
          </mxGeometry>
        </mxCell>
        <mxCell id="mklz-G96IOCMaS5BO4wx-75" value="" style="endArrow=classic;html=1;rounded=0;exitX=0.273;exitY=0.998;exitDx=0;exitDy=0;entryX=0;entryY=0;entryDx=0;entryDy=0;exitPerimeter=0;" edge="1" parent="1" source="mklz-G96IOCMaS5BO4wx-39" target="mklz-G96IOCMaS5BO4wx-8">
          <mxGeometry width="50" height="50" relative="1" as="geometry">
            <mxPoint x="860" y="940" as="sourcePoint" />
            <mxPoint x="511" y="1179" as="targetPoint" />
          </mxGeometry>
        </mxCell>
        <mxCell id="mklz-G96IOCMaS5BO4wx-77" value="" style="endArrow=classic;html=1;rounded=0;entryX=1;entryY=0.21;entryDx=0;entryDy=0;entryPerimeter=0;exitX=0;exitY=0.5;exitDx=0;exitDy=0;" edge="1" parent="1" source="mklz-G96IOCMaS5BO4wx-91" target="mklz-G96IOCMaS5BO4wx-68">
          <mxGeometry width="50" height="50" relative="1" as="geometry">
            <mxPoint x="1270" y="156.70000000000005" as="sourcePoint" />
            <mxPoint x="810" y="450" as="targetPoint" />
          </mxGeometry>
        </mxCell>
        <mxCell id="mklz-G96IOCMaS5BO4wx-78" value="SSH port 22" style="edgeLabel;html=1;align=center;verticalAlign=middle;resizable=0;points=[];" vertex="1" connectable="0" parent="mklz-G96IOCMaS5BO4wx-77">
          <mxGeometry x="-0.5569" y="-1" relative="1" as="geometry">
            <mxPoint x="1" as="offset" />
          </mxGeometry>
        </mxCell>
        <mxCell id="mklz-G96IOCMaS5BO4wx-81" style="edgeStyle=orthogonalEdgeStyle;rounded=0;orthogonalLoop=1;jettySize=auto;html=1;exitX=0.25;exitY=1;exitDx=0;exitDy=0;" edge="1" parent="1" source="mklz-G96IOCMaS5BO4wx-79" target="mklz-G96IOCMaS5BO4wx-74">
          <mxGeometry relative="1" as="geometry" />
        </mxCell>
        <mxCell id="mklz-G96IOCMaS5BO4wx-82" value="Github action push Docker Image" style="edgeLabel;html=1;align=center;verticalAlign=middle;resizable=0;points=[];" vertex="1" connectable="0" parent="mklz-G96IOCMaS5BO4wx-81">
          <mxGeometry x="-0.2448" y="-1" relative="1" as="geometry">
            <mxPoint as="offset" />
          </mxGeometry>
        </mxCell>
        <mxCell id="mklz-G96IOCMaS5BO4wx-79" value="Github" style="shape=image;html=1;verticalAlign=top;verticalLabelPosition=bottom;labelBackgroundColor=#ffffff;imageAspect=0;aspect=fixed;image=https://cdn4.iconfinder.com/data/icons/social-media-and-logos-11/32/Logo_Github-128.png" vertex="1" parent="1">
          <mxGeometry x="930" y="58" width="128" height="128" as="geometry" />
        </mxCell>
        <mxCell id="mklz-G96IOCMaS5BO4wx-80" value="" style="endArrow=classic;html=1;rounded=0;exitX=0;exitY=0.5;exitDx=0;exitDy=0;entryX=1;entryY=0.5;entryDx=0;entryDy=0;" edge="1" parent="1" source="mklz-G96IOCMaS5BO4wx-91" target="mklz-G96IOCMaS5BO4wx-79">
          <mxGeometry width="50" height="50" relative="1" as="geometry">
            <mxPoint x="1270" y="120" as="sourcePoint" />
            <mxPoint x="1080" y="120" as="targetPoint" />
          </mxGeometry>
        </mxCell>
        <mxCell id="mklz-G96IOCMaS5BO4wx-92" value="Push new code" style="edgeLabel;html=1;align=center;verticalAlign=middle;resizable=0;points=[];" vertex="1" connectable="0" parent="mklz-G96IOCMaS5BO4wx-80">
          <mxGeometry x="0.3283" y="1" relative="1" as="geometry">
            <mxPoint as="offset" />
          </mxGeometry>
        </mxCell>
        <mxCell id="mklz-G96IOCMaS5BO4wx-91" value="Developer" style="image;html=1;image=img/lib/clip_art/computers/Laptop_128x128.png" vertex="1" parent="1">
          <mxGeometry x="1220" y="82" width="80" height="80" as="geometry" />
        </mxCell>
      </root>
    </mxGraphModel>
  </diagram>
</mxfile>
